<svg width="351" height="348" viewBox="0 0 351 348" fill="none" xmlns="http://www.w3.org/2000/svg">
<g filter="url(#filter0_d_408_1208)">
<rect width="331" height="328" rx="10" fill="white"/>
</g>
<path d="M46.5273 243.66C47.2826 243.66 47.9727 243.764 48.5977 243.973C49.2227 244.181 49.75 244.422 50.1797 244.695V247.371C49.7109 247.085 49.2096 246.818 48.6758 246.57C48.1419 246.323 47.5365 246.199 46.8594 246.199C46.5208 246.199 46.1823 246.251 45.8438 246.355C45.5182 246.46 45.2448 246.616 45.0234 246.824C44.8151 247.033 44.7109 247.299 44.7109 247.625C44.7109 248.055 44.8997 248.38 45.2773 248.602C45.6549 248.823 46.1172 249.044 46.6641 249.266L48.2656 249.93C49.1771 250.32 49.8477 250.796 50.2773 251.355C50.707 251.915 50.9219 252.553 50.9219 253.27C50.9219 254.051 50.694 254.741 50.2383 255.34C49.7956 255.926 49.1966 256.388 48.4414 256.727C47.6992 257.065 46.8724 257.234 45.9609 257.234C45.1927 257.234 44.457 257.104 43.7539 256.844C43.0508 256.583 42.4388 256.264 41.918 255.887V253.211C42.4909 253.628 43.1224 253.979 43.8125 254.266C44.5026 254.552 45.2383 254.695 46.0195 254.695C46.5664 254.695 47.0352 254.591 47.4258 254.383C47.8164 254.161 48.0117 253.836 48.0117 253.406C48.0117 253.068 47.849 252.794 47.5234 252.586C47.2109 252.365 46.8659 252.182 46.4883 252.039L44.4766 251.258C43.4609 250.867 42.7708 250.359 42.4062 249.734C42.0547 249.096 41.8789 248.393 41.8789 247.625C41.8789 246.831 42.0938 246.141 42.5234 245.555C42.9661 244.956 43.5391 244.493 44.2422 244.168C44.9453 243.829 45.707 243.66 46.5273 243.66ZM57.543 246.883C58.5065 246.883 59.3333 247.091 60.0234 247.508C60.7266 247.924 61.2604 248.504 61.625 249.246C62.0026 249.975 62.1914 250.822 62.1914 251.785V252.84H55.043C55.1732 253.504 55.4987 254.038 56.0195 254.441C56.5404 254.845 57.1784 255.047 57.9336 255.047C58.6497 255.047 59.3008 254.904 59.8867 254.617C60.4727 254.331 60.9414 254.038 61.293 253.738L61.2734 256.043C60.9609 256.316 60.4922 256.596 59.8672 256.883C59.2552 257.156 58.5781 257.293 57.8359 257.293C56.8594 257.293 55.9674 257.072 55.1602 256.629C54.3659 256.186 53.7279 255.581 53.2461 254.812C52.7773 254.044 52.543 253.165 52.543 252.176C52.543 251.212 52.7578 250.333 53.1875 249.539C53.6172 248.745 54.2096 248.107 54.9648 247.625C55.7201 247.13 56.5794 246.883 57.543 246.883ZM57.4844 249.051C56.8724 249.051 56.3581 249.24 55.9414 249.617C55.5247 249.995 55.2383 250.503 55.082 251.141H59.8086C59.7565 250.438 59.4961 249.917 59.0273 249.578C58.5586 249.227 58.0443 249.051 57.4844 249.051ZM66.9375 247.137V248.387C67.237 248.009 67.5951 247.664 68.0117 247.352C68.4414 247.039 68.9883 246.883 69.6523 246.883C70.3424 246.883 70.9674 247.046 71.5273 247.371C72.0872 247.684 72.5234 248.159 72.8359 248.797C73.2266 248.263 73.6823 247.814 74.2031 247.449C74.724 247.072 75.3294 246.883 76.0195 246.883C76.6836 246.883 77.2891 247.039 77.8359 247.352C78.3828 247.651 78.819 248.1 79.1445 248.699C79.4831 249.298 79.6523 250.047 79.6523 250.945V257H77.1719L77.1523 251.277C77.1523 250.613 76.9766 250.118 76.625 249.793C76.2865 249.467 75.8372 249.305 75.2773 249.305C74.8477 249.305 74.4766 249.441 74.1641 249.715C73.8516 249.975 73.5586 250.288 73.2852 250.652V257H70.8047L70.7852 251.277C70.7852 250.613 70.6094 250.118 70.2578 249.793C69.9193 249.467 69.4766 249.305 68.9297 249.305C68.513 249.305 68.1419 249.435 67.8164 249.695C67.4909 249.943 67.1979 250.236 66.9375 250.574V257H64.457V247.137H66.9375ZM90.4141 242C90.8828 242 91.2865 242.169 91.625 242.508C91.9635 242.833 92.1328 243.224 92.1328 243.68C92.1328 244.122 91.9635 244.513 91.625 244.852C91.2865 245.19 90.8828 245.359 90.4141 245.359C89.9453 245.359 89.5417 245.19 89.2031 244.852C88.8776 244.513 88.7148 244.122 88.7148 243.68C88.7148 243.224 88.8776 242.833 89.2031 242.508C89.5417 242.169 89.9453 242 90.4141 242ZM91.8594 247.137V257H89.3789V249.246H87.7969V247.137H91.8594ZM97.4648 247.137V248.543C97.7643 248.139 98.168 247.762 98.6758 247.41C99.1966 247.059 99.7891 246.883 100.453 246.883C101.456 246.883 102.296 247.221 102.973 247.898C103.65 248.576 103.988 249.591 103.988 250.945V257H101.508L101.488 251.277C101.488 250.613 101.326 250.118 101 249.793C100.688 249.467 100.251 249.305 99.6914 249.305C99.2487 249.305 98.832 249.448 98.4414 249.734C98.0638 250.021 97.7383 250.359 97.4648 250.75V257H94.9844V247.137H97.4648ZM110.121 244.266V247.137H112.855V249.207H110.121V253.465C110.121 253.908 110.219 254.259 110.414 254.52C110.622 254.767 110.928 254.891 111.332 254.891C111.684 254.891 111.983 254.852 112.23 254.773C112.491 254.695 112.732 254.585 112.953 254.441V256.414C112.706 256.661 112.393 256.87 112.016 257.039C111.651 257.208 111.189 257.293 110.629 257.293C109.743 257.293 109.021 257.013 108.461 256.453C107.914 255.88 107.641 255.099 107.641 254.109V249.207H105.863V247.938C106.488 247.716 107.061 247.299 107.582 246.688C108.116 246.076 108.539 245.268 108.852 244.266H110.121ZM119.711 246.883C120.674 246.883 121.501 247.091 122.191 247.508C122.895 247.924 123.428 248.504 123.793 249.246C124.171 249.975 124.359 250.822 124.359 251.785V252.84H117.211C117.341 253.504 117.667 254.038 118.188 254.441C118.708 254.845 119.346 255.047 120.102 255.047C120.818 255.047 121.469 254.904 122.055 254.617C122.641 254.331 123.109 254.038 123.461 253.738L123.441 256.043C123.129 256.316 122.66 256.596 122.035 256.883C121.423 257.156 120.746 257.293 120.004 257.293C119.027 257.293 118.135 257.072 117.328 256.629C116.534 256.186 115.896 255.581 115.414 254.812C114.945 254.044 114.711 253.165 114.711 252.176C114.711 251.212 114.926 250.333 115.355 249.539C115.785 248.745 116.378 248.107 117.133 247.625C117.888 247.13 118.747 246.883 119.711 246.883ZM119.652 249.051C119.04 249.051 118.526 249.24 118.109 249.617C117.693 249.995 117.406 250.503 117.25 251.141H121.977C121.924 250.438 121.664 249.917 121.195 249.578C120.727 249.227 120.212 249.051 119.652 249.051ZM132.836 249.91C132.419 249.676 131.983 249.559 131.527 249.559C130.954 249.559 130.479 249.747 130.102 250.125C129.724 250.49 129.392 250.945 129.105 251.492V257H126.625V247.137H129.105V248.992C129.444 248.406 129.841 247.918 130.297 247.527C130.766 247.137 131.293 246.941 131.879 246.941C132.23 246.941 132.549 247 132.836 247.117V249.91ZM137.23 247.137V248.543C137.53 248.139 137.934 247.762 138.441 247.41C138.962 247.059 139.555 246.883 140.219 246.883C141.221 246.883 142.061 247.221 142.738 247.898C143.415 248.576 143.754 249.591 143.754 250.945V257H141.273L141.254 251.277C141.254 250.613 141.091 250.118 140.766 249.793C140.453 249.467 140.017 249.305 139.457 249.305C139.014 249.305 138.598 249.448 138.207 249.734C137.829 250.021 137.504 250.359 137.23 250.75V257H134.75V247.137H137.23ZM150.922 246.883C151.885 246.883 152.712 247.091 153.402 247.508C154.105 247.924 154.639 248.504 155.004 249.246C155.382 249.975 155.57 250.822 155.57 251.785V252.84H148.422C148.552 253.504 148.878 254.038 149.398 254.441C149.919 254.845 150.557 255.047 151.312 255.047C152.029 255.047 152.68 254.904 153.266 254.617C153.852 254.331 154.32 254.038 154.672 253.738L154.652 256.043C154.34 256.316 153.871 256.596 153.246 256.883C152.634 257.156 151.957 257.293 151.215 257.293C150.238 257.293 149.346 257.072 148.539 256.629C147.745 256.186 147.107 255.581 146.625 254.812C146.156 254.044 145.922 253.165 145.922 252.176C145.922 251.212 146.137 250.333 146.566 249.539C146.996 248.745 147.589 248.107 148.344 247.625C149.099 247.13 149.958 246.883 150.922 246.883ZM150.863 249.051C150.251 249.051 149.737 249.24 149.32 249.617C148.904 249.995 148.617 250.503 148.461 251.141H153.188C153.135 250.438 152.875 249.917 152.406 249.578C151.938 249.227 151.423 249.051 150.863 249.051ZM161.41 244.266V247.137H164.145V249.207H161.41V253.465C161.41 253.908 161.508 254.259 161.703 254.52C161.911 254.767 162.217 254.891 162.621 254.891C162.973 254.891 163.272 254.852 163.52 254.773C163.78 254.695 164.021 254.585 164.242 254.441V256.414C163.995 256.661 163.682 256.87 163.305 257.039C162.94 257.208 162.478 257.293 161.918 257.293C161.033 257.293 160.31 257.013 159.75 256.453C159.203 255.88 158.93 255.099 158.93 254.109V249.207H157.152V247.938C157.777 247.716 158.35 247.299 158.871 246.688C159.405 246.076 159.828 245.268 160.141 244.266H161.41Z" fill="black"/>
<path d="M45.668 275.914V286.559H52.2109V289H42.9531V275.914H45.668ZM59.5547 278.883C60.5182 278.883 61.3971 279.117 62.1914 279.586C62.9857 280.042 63.6237 280.667 64.1055 281.461C64.6003 282.242 64.8477 283.121 64.8477 284.098C64.8477 285.074 64.6003 285.953 64.1055 286.734C63.6237 287.516 62.9857 288.141 62.1914 288.609C61.3971 289.065 60.5182 289.293 59.5547 289.293C58.6042 289.293 57.7253 289.065 56.918 288.609C56.1237 288.141 55.4857 287.516 55.0039 286.734C54.5221 285.953 54.2812 285.074 54.2812 284.098C54.2812 283.121 54.5221 282.242 55.0039 281.461C55.4857 280.667 56.1237 280.042 56.918 279.586C57.7253 279.117 58.6042 278.883 59.5547 278.883ZM59.5547 281.285C59.0859 281.285 58.6497 281.396 58.2461 281.617C57.8424 281.839 57.5169 282.158 57.2695 282.574C57.0352 282.991 56.918 283.499 56.918 284.098C56.918 284.697 57.0352 285.204 57.2695 285.621C57.5169 286.038 57.8424 286.357 58.2461 286.578C58.6497 286.786 59.0859 286.891 59.5547 286.891C60.0234 286.891 60.4596 286.786 60.8633 286.578C61.2669 286.357 61.5924 286.038 61.8398 285.621C62.0872 285.204 62.2109 284.697 62.2109 284.098C62.2109 283.499 62.0872 282.991 61.8398 282.574C61.5924 282.158 61.2669 281.839 60.8633 281.617C60.4596 281.396 60.0234 281.285 59.5547 281.285ZM71.6836 278.883C72.4128 278.883 73.0117 279 73.4805 279.234C73.9492 279.469 74.3203 279.697 74.5938 279.918V282.203C74.2552 281.956 73.8711 281.747 73.4414 281.578C73.0247 281.409 72.5104 281.324 71.8984 281.324C71.4036 281.324 70.9414 281.448 70.5117 281.695C70.0951 281.943 69.763 282.275 69.5156 282.691C69.2682 283.108 69.1445 283.583 69.1445 284.117C69.1445 284.924 69.4049 285.589 69.9258 286.109C70.4466 286.63 71.1042 286.891 71.8984 286.891C72.5104 286.891 73.0247 286.812 73.4414 286.656C73.8711 286.487 74.2552 286.279 74.5938 286.031V288.297C74.3203 288.531 73.9492 288.759 73.4805 288.98C73.0117 289.189 72.4128 289.293 71.6836 289.293C70.681 289.293 69.7891 289.059 69.0078 288.59C68.2396 288.108 67.6276 287.477 67.1719 286.695C66.7292 285.901 66.5078 285.042 66.5078 284.117C66.5078 283.427 66.6315 282.77 66.8789 282.145C67.1393 281.52 67.5039 280.966 67.9727 280.484C68.4414 279.99 68.9883 279.599 69.6133 279.312C70.2513 279.026 70.9414 278.883 71.6836 278.883ZM80.707 278.883C81.2409 278.883 81.7812 279.007 82.3281 279.254C82.875 279.501 83.3307 279.833 83.6953 280.25V279.137H86.1758V289H83.6953V287.34C83.4089 287.874 82.9922 288.336 82.4453 288.727C81.8984 289.104 81.2604 289.293 80.5312 289.293C79.737 289.293 79.0013 289.091 78.3242 288.688C77.6602 288.284 77.1263 287.698 76.7227 286.93C76.319 286.161 76.1172 285.23 76.1172 284.137C76.1172 283.043 76.319 282.105 76.7227 281.324C77.1393 280.543 77.6927 279.944 78.3828 279.527C79.0859 279.098 79.8607 278.883 80.707 278.883ZM81.2148 281.305C80.694 281.305 80.2448 281.441 79.8672 281.715C79.5026 281.975 79.2161 282.32 79.0078 282.75C78.7995 283.18 78.6953 283.642 78.6953 284.137C78.6953 284.879 78.9167 285.51 79.3594 286.031C79.8151 286.552 80.4141 286.812 81.1562 286.812C81.599 286.812 82.0091 286.695 82.3867 286.461C82.7773 286.227 83.0898 285.901 83.3242 285.484C83.5716 285.055 83.6953 284.54 83.6953 283.941V282.535C83.3438 282.158 82.9596 281.858 82.543 281.637C82.1393 281.415 81.6966 281.305 81.2148 281.305ZM91.7031 274.938V289H89.2227V274.938H91.7031ZM96.332 278.414C96.7617 278.414 97.1263 278.57 97.4258 278.883C97.7383 279.182 97.8945 279.547 97.8945 279.977C97.8945 280.406 97.7383 280.777 97.4258 281.09C97.1263 281.389 96.7617 281.539 96.332 281.539C95.9023 281.539 95.5312 281.389 95.2188 281.09C94.9193 280.777 94.7695 280.406 94.7695 279.977C94.7695 279.547 94.9193 279.182 95.2188 278.883C95.5312 278.57 95.9023 278.414 96.332 278.414ZM96.332 286.227C96.7617 286.227 97.1263 286.383 97.4258 286.695C97.7383 286.995 97.8945 287.359 97.8945 287.789C97.8945 288.219 97.7383 288.59 97.4258 288.902C97.1263 289.202 96.7617 289.352 96.332 289.352C95.9023 289.352 95.5312 289.202 95.2188 288.902C94.9193 288.59 94.7695 288.219 94.7695 287.789C94.7695 287.359 94.9193 286.995 95.2188 286.695C95.5312 286.383 95.9023 286.227 96.332 286.227ZM113.578 275.914V284.625H115.629V286.109H113.578V289H111.82V286.109H105.844V285.465C106.586 284.671 107.374 283.785 108.207 282.809C109.053 281.832 109.88 280.771 110.688 279.625C111.508 278.466 112.257 277.229 112.934 275.914H113.578ZM111.82 280.211C111.299 281.018 110.772 281.799 110.238 282.555C109.704 283.297 109.151 283.987 108.578 284.625H111.82V280.211ZM121.488 275.621C122.335 275.621 123.064 275.816 123.676 276.207C124.301 276.598 124.815 277.125 125.219 277.789C125.622 278.44 125.922 279.169 126.117 279.977C126.326 280.784 126.43 281.611 126.43 282.457C126.43 283.29 126.326 284.117 126.117 284.938C125.922 285.745 125.622 286.48 125.219 287.145C124.815 287.796 124.301 288.316 123.676 288.707C123.064 289.098 122.335 289.293 121.488 289.293C120.655 289.293 119.926 289.098 119.301 288.707C118.676 288.316 118.161 287.796 117.758 287.145C117.354 286.48 117.048 285.745 116.84 284.938C116.645 284.117 116.547 283.29 116.547 282.457C116.547 281.611 116.645 280.784 116.84 279.977C117.048 279.169 117.354 278.44 117.758 277.789C118.161 277.125 118.676 276.598 119.301 276.207C119.926 275.816 120.655 275.621 121.488 275.621ZM121.488 277.34C120.954 277.34 120.479 277.49 120.062 277.789C119.659 278.076 119.32 278.466 119.047 278.961C118.773 279.443 118.565 279.99 118.422 280.602C118.279 281.201 118.207 281.819 118.207 282.457C118.207 283.095 118.279 283.72 118.422 284.332C118.565 284.931 118.773 285.478 119.047 285.973C119.32 286.454 119.659 286.845 120.062 287.145C120.479 287.431 120.954 287.574 121.488 287.574C122.022 287.574 122.491 287.431 122.895 287.145C123.311 286.845 123.656 286.454 123.93 285.973C124.203 285.478 124.411 284.931 124.555 284.332C124.698 283.72 124.77 283.095 124.77 282.457C124.77 281.819 124.698 281.201 124.555 280.602C124.411 279.99 124.203 279.443 123.93 278.961C123.656 278.466 123.311 278.076 122.895 277.789C122.491 277.49 122.022 277.34 121.488 277.34ZM131.801 275.621C132.66 275.621 133.415 275.777 134.066 276.09C134.717 276.402 135.225 276.852 135.59 277.438C135.954 278.01 136.137 278.694 136.137 279.488C136.137 280.335 135.922 281.142 135.492 281.91C135.062 282.665 134.451 283.473 133.656 284.332C132.875 285.191 131.944 286.207 130.863 287.379H136.234V289H128.031V288.297C129.359 286.812 130.505 285.556 131.469 284.527C132.432 283.486 133.174 282.594 133.695 281.852C134.216 281.109 134.477 280.452 134.477 279.879C134.477 279.033 134.197 278.401 133.637 277.984C133.09 277.555 132.426 277.34 131.645 277.34C131.007 277.34 130.401 277.503 129.828 277.828C129.268 278.141 128.799 278.466 128.422 278.805V276.969C128.76 276.656 129.223 276.357 129.809 276.07C130.395 275.771 131.059 275.621 131.801 275.621ZM148.832 275.621C149.678 275.621 150.408 275.816 151.02 276.207C151.645 276.598 152.159 277.125 152.562 277.789C152.966 278.44 153.266 279.169 153.461 279.977C153.669 280.784 153.773 281.611 153.773 282.457C153.773 283.29 153.669 284.117 153.461 284.938C153.266 285.745 152.966 286.48 152.562 287.145C152.159 287.796 151.645 288.316 151.02 288.707C150.408 289.098 149.678 289.293 148.832 289.293C147.999 289.293 147.27 289.098 146.645 288.707C146.02 288.316 145.505 287.796 145.102 287.145C144.698 286.48 144.392 285.745 144.184 284.938C143.988 284.117 143.891 283.29 143.891 282.457C143.891 281.611 143.988 280.784 144.184 279.977C144.392 279.169 144.698 278.44 145.102 277.789C145.505 277.125 146.02 276.598 146.645 276.207C147.27 275.816 147.999 275.621 148.832 275.621ZM148.832 277.34C148.298 277.34 147.823 277.49 147.406 277.789C147.003 278.076 146.664 278.466 146.391 278.961C146.117 279.443 145.909 279.99 145.766 280.602C145.622 281.201 145.551 281.819 145.551 282.457C145.551 283.095 145.622 283.72 145.766 284.332C145.909 284.931 146.117 285.478 146.391 285.973C146.664 286.454 147.003 286.845 147.406 287.145C147.823 287.431 148.298 287.574 148.832 287.574C149.366 287.574 149.835 287.431 150.238 287.145C150.655 286.845 151 286.454 151.273 285.973C151.547 285.478 151.755 284.931 151.898 284.332C152.042 283.72 152.113 283.095 152.113 282.457C152.113 281.819 152.042 281.201 151.898 280.602C151.755 279.99 151.547 279.443 151.273 278.961C151 278.466 150.655 278.076 150.238 277.789C149.835 277.49 149.366 277.34 148.832 277.34ZM159.145 275.621C160.004 275.621 160.759 275.777 161.41 276.09C162.061 276.402 162.569 276.852 162.934 277.438C163.298 278.01 163.48 278.694 163.48 279.488C163.48 280.335 163.266 281.142 162.836 281.91C162.406 282.665 161.794 283.473 161 284.332C160.219 285.191 159.288 286.207 158.207 287.379H163.578V289H155.375V288.297C156.703 286.812 157.849 285.556 158.812 284.527C159.776 283.486 160.518 282.594 161.039 281.852C161.56 281.109 161.82 280.452 161.82 279.879C161.82 279.033 161.54 278.401 160.98 277.984C160.434 277.555 159.77 277.34 158.988 277.34C158.35 277.34 157.745 277.503 157.172 277.828C156.612 278.141 156.143 278.466 155.766 278.805V276.969C156.104 276.656 156.566 276.357 157.152 276.07C157.738 275.771 158.402 275.621 159.145 275.621Z" fill="#101010"/>
<g filter="url(#filter1_d_408_1208)">
<path d="M226.141 58H104.744C102.956 58.0021 101.242 58.7133 99.9777 59.9777C98.7133 61.242 98.0021 62.9562 98 64.7443V159.164C98.0021 160.952 98.7133 162.666 99.9777 163.931C101.242 165.195 102.956 165.906 104.744 165.908H160.947V183.893H138.466V192.886H192.42V183.893H169.939V165.908H226.141C227.929 165.906 229.644 165.195 230.908 163.931C232.172 162.666 232.883 160.952 232.886 159.164V64.7443C232.883 62.9562 232.172 61.242 230.908 59.9777C229.644 58.7133 227.929 58.0021 226.141 58V58ZM223.893 156.916H106.992V129.939H223.893V156.916ZM223.893 120.947H106.992V66.9924H223.893V120.947Z" fill="#060606"/>
<path d="M214.901 138.931H205.908V147.924H214.901V138.931Z" fill="#060606"/>
</g>
<rect x="52.5" y="33.5" width="225" height="184" rx="9.5" stroke="#B6B6B6"/>
<defs>
<filter id="filter0_d_408_1208" x="0" y="0" width="351" height="348" filterUnits="userSpaceOnUse" color-interpolation-filters="sRGB">
<feFlood flood-opacity="0" result="BackgroundImageFix"/>
<feColorMatrix in="SourceAlpha" type="matrix" values="0 0 0 0 0 0 0 0 0 0 0 0 0 0 0 0 0 0 127 0" result="hardAlpha"/>
<feOffset dx="10" dy="10"/>
<feGaussianBlur stdDeviation="5"/>
<feComposite in2="hardAlpha" operator="out"/>
<feColorMatrix type="matrix" values="0 0 0 0 0 0 0 0 0 0 0 0 0 0 0 0 0 0 0.25 0"/>
<feBlend mode="normal" in2="BackgroundImageFix" result="effect1_dropShadow_408_1208"/>
<feBlend mode="normal" in="SourceGraphic" in2="effect1_dropShadow_408_1208" result="shape"/>
</filter>
<filter id="filter1_d_408_1208" x="94" y="58" width="142.885" height="142.885" filterUnits="userSpaceOnUse" color-interpolation-filters="sRGB">
<feFlood flood-opacity="0" result="BackgroundImageFix"/>
<feColorMatrix in="SourceAlpha" type="matrix" values="0 0 0 0 0 0 0 0 0 0 0 0 0 0 0 0 0 0 127 0" result="hardAlpha"/>
<feOffset dy="4"/>
<feGaussianBlur stdDeviation="2"/>
<feComposite in2="hardAlpha" operator="out"/>
<feColorMatrix type="matrix" values="0 0 0 0 0 0 0 0 0 0 0 0 0 0 0 0 0 0 0.25 0"/>
<feBlend mode="normal" in2="BackgroundImageFix" result="effect1_dropShadow_408_1208"/>
<feBlend mode="normal" in="SourceGraphic" in2="effect1_dropShadow_408_1208" result="shape"/>
</filter>
</defs>
</svg>
