<?xml version="1.0" encoding="iso-8859-1"?>
<!-- Generator: Adobe Illustrator 18.0.0, SVG Export Plug-In . SVG Version: 6.00 Build 0)  -->
<!DOCTYPE svg PUBLIC "-//W3C//DTD SVG 1.1//EN" "http://www.w3.org/Graphics/SVG/1.1/DTD/svg11.dtd">
<svg version="1.1" id="Capa_1" xmlns="http://www.w3.org/2000/svg" xmlns:xlink="http://www.w3.org/1999/xlink" x="0px" y="0px"
	 viewBox="0 0 322.58 322.58" style="enable-background:new 0 0 322.58 322.58;" xml:space="preserve">
<g>
	<path d="M268.854,212.072c9.34-3.301,16.053-12.213,16.053-22.67c0-13.252-10.783-24.035-24.037-24.035h-10.662v-23.266h5.236
		c4.143,0,7.5-3.357,7.5-7.5V35.127C262.943,15.758,248.143,0,229.949,0H121.674c-18.193,0-32.996,15.758-32.996,35.127v66.301
		H45.174c-4.143,0-7.5,3.357-7.5,7.5v25.674c0,3.711,2.697,6.785,6.238,7.387c0,48.77,21.033,54.348,23.992,54.873
		c2.318,7.086,7.852,12.725,14.865,15.203l-10.33,102.26c-0.416,4.121,2.588,7.801,6.709,8.217c0.256,0.025,0.51,0.039,0.764,0.039
		c3.803,0,7.063-2.883,7.451-6.748l2.107-20.867h172.678l2.107,20.867c0.391,3.865,3.65,6.748,7.453,6.748
		c0.252,0,0.508-0.014,0.764-0.039c4.121-0.416,7.125-4.096,6.707-8.217L268.854,212.072z M103.678,35.127
		c0-11.098,8.072-20.127,17.996-20.127h108.275c9.922,0,17.994,9.029,17.994,20.127v91.975H142.318v-18.174
		c0-4.143-3.357-7.5-7.5-7.5h-31.141V35.127z M235.207,142.102v23.266H116.414v-23.266H235.207z M52.674,127.102v-10.674h74.645
		v10.674H52.674z M68.178,181.141c-0.326-0.205-9.656-6.578-9.473-39.039h42.709v23.266H90.748
		C80.397,165.367,71.553,171.945,68.178,181.141z M81.713,189.402c0-4.982,4.055-9.035,9.035-9.035h170.121
		c4.984,0,9.037,4.053,9.037,9.035c0,4.984-4.053,9.037-9.037,9.037H90.748C85.768,198.439,81.713,194.387,81.713,189.402z
		 M90.986,279.965l6.721-66.525h156.207l6.721,66.525H90.986z"/>
</g>
<g>
</g>
<g>
</g>
<g>
</g>
<g>
</g>
<g>
</g>
<g>
</g>
<g>
</g>
<g>
</g>
<g>
</g>
<g>
</g>
<g>
</g>
<g>
</g>
<g>
</g>
<g>
</g>
<g>
</g>
</svg>
