<svg width="26" height="25" viewBox="0 0 26 25" fill="none" xmlns="http://www.w3.org/2000/svg">
<path d="M10.4722 0C16.2559 0 20.9445 4.50825 20.9445 10.0695C20.9445 12.4749 20.0673 14.6832 18.6037 16.415L25.6827 23.2218C26.1058 23.6286 26.1058 24.2881 25.6827 24.6949C25.2982 25.0647 24.6963 25.0983 24.2722 24.7957L24.1507 24.6949L17.0716 17.8882C15.2705 19.2954 12.9739 20.1389 10.4722 20.1389C4.68859 20.1389 0 15.6307 0 10.0695C0 4.50825 4.68859 0 10.4722 0ZM10.4722 2.08333C5.88519 2.08333 2.16667 5.65884 2.16667 10.0695C2.16667 14.48 5.88519 18.0556 10.4722 18.0556C15.0592 18.0556 18.7778 14.48 18.7778 10.0695C18.7778 5.65884 15.0592 2.08333 10.4722 2.08333Z" fill="#212121"/>
</svg>
