<svg width="51" height="58" viewBox="0 0 51 58" fill="none" xmlns="http://www.w3.org/2000/svg">
<g clip-path="url(#clip0_566_1859)">
<path d="M30.9643 34.4375H20.0357C8.97054 34.4375 0 43.3641 0 54.375C0 56.3767 1.63132 58 3.64286 58H47.3571C49.3687 58 51 56.3767 51 54.375C51 43.3641 42.0295 34.4375 30.9643 34.4375ZM5.57699 52.5625C6.47632 45.4145 12.6134 39.875 20.0357 39.875H30.9643C38.3821 39.875 44.5225 45.4201 45.4219 52.5625H5.57699ZM25.5 29C33.5473 29 40.0714 22.5079 40.0714 14.5C40.0714 6.49215 33.5473 0 25.5 0C17.4527 0 10.9286 6.49215 10.9286 14.5C10.9286 22.509 17.4516 29 25.5 29ZM25.5 5.4375C30.5215 5.4375 34.6071 9.50316 34.6071 14.5C34.6071 19.4968 30.5215 23.5625 25.5 23.5625C20.4785 23.5625 16.3929 19.4957 16.3929 14.5C16.3929 9.50316 20.4797 5.4375 25.5 5.4375Z" fill="#6C6C6C"/>
</g>
<defs>
<clipPath id="clip0_566_1859">
<rect width="51" height="58" fill="white"/>
</clipPath>
</defs>
</svg>
