<svg width="210" height="210" viewBox="0 0 210 210" fill="none" xmlns="http://www.w3.org/2000/svg">
<path d="M99.9961 139.371C95.5254 143.842 88.2246 143.842 83.7539 139.371L57.5039 113.121C53.0332 108.65 53.0332 101.35 57.5039 96.8789C61.9746 92.4082 69.2754 92.4082 73.7461 96.8789L91.875 115.008L136.254 70.6289C140.725 66.1582 148.025 66.1582 152.496 70.6289C156.967 75.0996 156.967 82.4004 152.496 86.8711L99.9961 139.371ZM210 105C210 162.996 162.996 210 105 210C47.0039 210 0 162.996 0 105C0 47.0039 47.0039 0 105 0C162.996 0 210 47.0039 210 105ZM105 19.6875C57.873 19.6875 19.6875 57.873 19.6875 105C19.6875 152.127 57.873 190.312 105 190.312C152.127 190.312 190.312 152.127 190.312 105C190.312 57.873 152.127 19.6875 105 19.6875Z" fill="black"/>
</svg>
