<?xml version="1.0" encoding="utf-8"?>
<!-- Generator: Adobe Illustrator 26.0.3, SVG Export Plug-In . SVG Version: 6.00 Build 0)  -->
<svg version="1.1" xmlns="http://www.w3.org/2000/svg" xmlns:xlink="http://www.w3.org/1999/xlink" x="0px" y="0px"
	 viewBox="0 0 1024 1024" style="enable-background:new 0 0 1024 1024;" xml:space="preserve">
<style type="text/css">
	.st0{fill:#282828;stroke:#0A0A0A;stroke-width:9.8502;stroke-linejoin:round;stroke-miterlimit:10;}
	.st1{fill:#0A0A0A;stroke:#0A0A0A;stroke-width:22.5882;stroke-linecap:round;stroke-miterlimit:10;}
	.st2{fill:none;stroke:#0A0A0A;stroke-width:32;stroke-linejoin:round;stroke-miterlimit:10;}
	.st3{fill:#FFFFFF;stroke:#BCBCBC;stroke-width:0.7071;stroke-linecap:round;stroke-miterlimit:10;}
	.st4{fill:#FFFFFF;stroke:#BCBCBC;stroke-width:0.3681;stroke-linecap:round;stroke-miterlimit:10;}
</style>
<g id="Camada_3">
	<path class="st0" d="M711.06,740.26H330.77c-5.29,0-9.57-4.28-9.57-9.57v-48.12c0-5.29,4.28-9.57,9.57-9.57h380.29
		c5.29,0,9.57,4.28,9.57,9.57v48.12C720.63,735.98,716.34,740.26,711.06,740.26z"/>
</g>
<g id="Camada_2">
	<path class="st1" d="M556.43,581.44v104.79c0,9.33-15.91,16.89-35.51,16.89h-0.02c-19.6,0-35.51-7.57-35.51-16.89V581.44H556.43z"
		/>
</g>
<g id="Camada_1">
	<polyline class="st2" points="543.69,586.14 879.38,586.14 879.38,183.07 175.93,183.07 175.93,586.14 498.14,586.14 	"/>
	<circle class="st3" cx="855.34" cy="585.16" r="5.29"/>
	<circle class="st4" cx="841.02" cy="585.16" r="2.76"/>
</g>
</svg>
